<svg id="Layer_1" data-name="Layer 1" xmlns="http://www.w3.org/2000/svg" viewBox="0 0 516.64 573.76"><defs><style>.cls-1{fill:#00fffb;}.cls-2{fill:#17ffe8;}.cls-3{fill:#03eade;}</style></defs><path class="cls-1" d="M506.75,143.44l-78.29,45.2L258.31,90.38,88.11,188.62,9.87,143.45a73.49,73.49,0,0,1,27-27L221.48,9.87a73.65,73.65,0,0,1,73.66,0L479.79,116.48A73.61,73.61,0,0,1,506.75,143.44Z"/><path class="cls-2" d="M258.31,483.39v90.37a73.58,73.58,0,0,0,36.83-9.87L479.79,457.28a73.66,73.66,0,0,0,36.83-63.79V334.25Zm172-35.79L296.48,524.9V499.56l133.87-77.28Zm48.12-27.78-35.11,20.26V414.76l35.11-20.26Z"/><path class="cls-3" d="M258.31,483.4v90.36A73.52,73.52,0,0,1,221.63,564l-.15-.08L36.83,457.28A73.66,73.66,0,0,1,0,393.49V180.27a73.55,73.55,0,0,1,9.87-36.82l78.24,45.17V385.14Z"/><path class="cls-2" d="M516.62,180.27v11.9l-41,23.68-47.14-27.21,78.29-45.2A73.59,73.59,0,0,1,516.62,180.27Z"/><path class="cls-2" d="M516.62,206.5,258.31,355.63V469.1L516.62,320h0V206.49ZM430.35,325.69,296.48,403V377.67l133.87-77.3Zm48.12-27.78-35.11,20.28V292.85l35.11-20.26Z"/><polygon class="cls-1" points="189.86 144.18 189.86 247.35 100.5 195.78 189.86 144.18"/><polygon class="cls-3" points="258.31 355.62 258.31 469.1 100.5 377.98 100.5 195.78 189.86 247.35 189.86 316.12 258.31 355.62"/></svg>